<svg xmlns="http://www.w3.org/2000/svg" viewBox="0 0 512 512">
  <defs>
    <linearGradient id="g" x1="0" y1="0" x2="1" y2="1">
      <stop offset="0" stop-color="#FF7A45"/>
      <stop offset="1" stop-color="#FFC857"/>
    </linearGradient>
  </defs>
  <rect width="512" height="512" rx="96" fill="#0F1316"/>
  <rect x="32" y="32" width="448" height="448" rx="80" fill="url(#g)"/>
  <g transform="translate(256 262) scale(13.5) translate(-12 -12)">
    <path d="M8.5 14.5A2.5 2.5 0 0 0 11 12c0-1.38-.5-2-1-3-1.072-2.143-.224-4.054 2-6 .5 2.5 2 4.9 4 6.5 2 1.6 3 3.5 3 5.5a7 7 0 1 1-14 0c0-1.153.433-2.294 1-3a2.5 2.5 0 0 0 2.5 2.5z"
      fill="none" stroke="#0F1316" stroke-width="2" stroke-linecap="round" stroke-linejoin="round"/>
  </g>
</svg>
